
Pre 2010 F1 Season Interview with Mark Webber (60 minuters, Australian TV)


General
Complete name                    : Webber Interview (60 Minutes) 21-03-2010 [RZ].avi
Format                           : AVI
Format/Info                      : Audio Video Interleave
File size                        : 103 MiB
Duration                         : 13mn 12s
Overall bit rate                 : 1 087 Kbps
Writing library                  : VirtualDub build 28346/release

Video
ID                               : 0
Format                           : MPEG-4 Visual
Format profile                   : Advanced Simple@L5
Format settings, BVOP            : Yes
Format settings, QPel            : No
Format settings, GMC             : No warppoints
Format settings, Matrix          : Default (H.263)
Muxing mode                      : Packed bitstream
Codec ID                         : XVID
Codec ID/Hint                    : XviD
Duration                         : 13mn 11s
Bit rate                         : 998 Kbps
Width                            : 720 pixels
Height                           : 404 pixels
Display aspect ratio             : 16:9
Frame rate                       : 25.000 fps
Resolution                       : 8 bits
Colorimetry                      : 4:2:0
Scan type                        : Progressive
Bits/(Pixel*Frame)               : 0.137
Stream size                      : 94.2 MiB (92%)
Writing library                  : XviD 1.2.1 (UTC 2008-12-04)

Audio
ID                               : 1
Format                           : MPEG Audio
Format version                   : Version 2
Format profile                   : Layer 3
Mode                             : Joint stereo / Intensity Stereo + MS Stereo
Codec ID                         : 55
Codec ID/Hint                    : MP3
Duration                         : 13mn 12s
Bit rate mode                    : Constant
Bit rate                         : 80.0 Kbps
Channel(s)                       : 2 channels
Sampling rate                    : 24.0 KHz
Stream size                      : 7.55 MiB (7%)
Alignment                        : Split accross interleaves
Interleave, duration             : 40 ms (1.00 video frame)
Interleave, preload duration     : 500 ms



